<svg width="45" height="32" viewBox="0 0 45 32" fill="none" xmlns="http://www.w3.org/2000/svg">
<path d="M13.2479 18.265L29.9379 26.3478C30.2288 26.4892 30.5673 26.2779 30.5673 25.9537V14.5224C30.5673 14.3539 30.4719 14.2014 30.3193 14.1283L13.6293 6.04388C13.3385 5.90403 13 6.1154 13 6.43801V17.8693C13 18.0377 13.0954 18.1903 13.2463 18.2634" fill="white"/>
<path d="M22.2984 0C10.0042 0 0 7.04184 0 15.6967C0 24.3516 10.0042 31.3935 22.2984 31.3935C34.5926 31.3935 44.5983 24.3516 44.5983 15.6967C44.5983 7.04184 34.5942 0 22.2984 0ZM29.1495 28.1213L21.8486 24.4899C21.5578 24.3437 21.2161 24.5567 21.2145 24.8809L21.2098 28.5647C21.2098 28.8158 20.9984 29.0176 20.7473 29.0065C10.4682 28.4741 2.34728 22.71 2.34728 15.6983C2.34728 9.98667 7.73474 5.10299 15.2883 3.20069C15.3916 3.17368 15.5029 3.18639 15.5982 3.23407L22.9023 6.86862C23.1931 7.01324 23.5348 6.80187 23.5348 6.47608L23.5396 2.84312C23.5396 2.59202 23.7541 2.38701 24.0052 2.40131C34.2112 2.98297 42.251 8.72324 42.251 15.6983C42.251 21.3703 36.9351 26.2253 29.461 28.1562C29.3577 28.1833 29.2464 28.1721 29.1495 28.1229V28.1213Z" fill="white"/>
</svg>
