<svg width="35" height="25" viewBox="0 0 35 25" fill="none" xmlns="http://www.w3.org/2000/svg">
<g clip-path="url(#clip0_5070_24685)">
<path fill-rule="evenodd" clip-rule="evenodd" d="M2.56315 8.63322C-0.205401 7.22616 0.113609 5.65674 2.89641 5.82194L3.51734 6.98975L4.80192 3.00212C5.30607 1.42415 6.14632 0 7.79549 0H24.2103C25.8566 0 26.8051 1.39852 27.2039 2.99357L28.1666 6.86727L28.7362 5.82194C31.5846 5.65389 31.8495 7.31445 28.8331 8.74715C28.4263 8.59147 28.007 8.47046 27.5798 8.38542C27.0676 8.2842 26.5468 8.23269 26.0247 8.23161C25.5034 8.23142 24.9834 8.28294 24.4723 8.38542C23.9546 8.48813 23.4487 8.6437 22.9627 8.84969C22.478 9.05028 22.0143 9.29834 21.5785 9.59025C21.1412 9.8797 20.733 10.2107 20.3594 10.5786C19.9897 10.9514 19.6576 11.3597 19.3682 11.7977C18.7807 12.6688 18.3718 13.6477 18.165 14.6778C17.9582 15.7079 17.9576 16.7688 18.1633 17.7991C18.2569 18.2598 18.3903 18.7116 18.5621 19.1492L18.6248 19.3115C18.6589 19.3941 18.6931 19.4739 18.7301 19.5565H6.06372V20.3084C6.06222 20.5562 5.96292 20.7934 5.78743 20.9684C5.61193 21.1434 5.37444 21.2419 5.12663 21.2427H1.139C0.890696 21.2427 0.652477 21.1444 0.476367 20.9694C0.300256 20.7943 0.200563 20.5567 0.199058 20.3084V18.1494C0.196237 18.101 0.196237 18.0525 0.199058 18.0042C-0.0943173 14.1276 -0.518715 10.6327 2.56315 8.63322ZM27.0301 10.3422C28.1532 10.3417 29.2564 10.6393 30.2267 11.2047C31.1971 11.7702 32 12.5831 32.5533 13.5605C33.1066 14.5379 33.3904 15.6446 33.3759 16.7677C33.3613 17.8907 33.0488 18.9897 32.4704 19.9524L34.9256 22.627C34.9803 22.6863 35.0092 22.7649 35.006 22.8455C35.0028 22.9262 34.9677 23.0022 34.9085 23.057L33.1056 24.7005C33.0764 24.7275 33.0422 24.7485 33.005 24.7622C32.9677 24.776 32.9281 24.7822 32.8884 24.7806C32.8487 24.7791 32.8097 24.7696 32.7737 24.753C32.7376 24.7363 32.7052 24.7127 32.6783 24.6834L30.3285 22.1C29.8731 22.3785 29.3839 22.5977 28.873 22.7523C28.2787 22.936 27.6607 23.0319 27.0387 23.0371C26.2068 23.0382 25.383 22.8746 24.6147 22.5557C23.8451 22.2359 23.1456 21.7685 22.5554 21.18V21.1629C21.9738 20.5767 21.5114 19.8831 21.1939 19.1207C20.793 18.1583 20.6356 17.1118 20.7357 16.074C20.8357 15.0363 21.1901 14.0392 21.7676 13.1711C22.345 12.303 23.1276 11.5907 24.046 11.0972C24.9644 10.6038 25.9904 10.3445 27.033 10.3422H27.0301ZM30.6104 13.1022C30.1399 12.6316 29.5815 12.258 28.967 12.0028H28.9499C28.3416 11.7535 27.6904 11.6257 27.033 11.6268C26.3687 11.6239 25.7105 11.7528 25.0964 12.006C24.4823 12.2593 23.9246 12.6319 23.4555 13.1022C22.9836 13.5717 22.6099 14.1304 22.356 14.7457C21.9737 15.6704 21.8739 16.6877 22.0693 17.6691C22.2646 18.6506 22.7463 19.5521 23.4536 20.26C24.1609 20.9679 25.062 21.4503 26.0433 21.6465C27.0245 21.8427 28.0419 21.7438 28.967 21.3623C29.5804 21.105 30.1385 20.7317 30.6104 20.2629C31.3168 19.555 31.7981 18.6541 31.9937 17.6734C32.1893 16.6927 32.0906 15.6761 31.7099 14.7514C31.4546 14.1351 31.0811 13.5749 30.6104 13.1022ZM7.66162 13.2304L4.11548 12.7861C3.27808 12.6921 3.05306 13.0452 3.34074 13.7659L3.72241 14.6973C3.83181 14.9149 3.99692 15.0997 4.20093 15.2327C4.44332 15.3711 4.71654 15.4466 4.99561 15.4521L8.16008 15.4777C8.92342 15.4777 9.25383 15.1701 9.01457 14.4666C8.92924 14.1538 8.75673 13.8718 8.51717 13.6535C8.27761 13.4351 7.98089 13.2893 7.66162 13.2332V13.2304ZM4.8418 7.86987H26.751L25.7826 3.85376C25.5177 2.63184 24.7572 1.57511 23.5039 1.57511H8.33952C7.08627 1.57511 6.44255 2.66032 6.06088 3.85376L4.8418 7.86987Z" fill="#FFE4A3"/>
</g>
<defs>
<clipPath id="clip0_5070_24685">
<rect width="35" height="24.7803" fill="white"/>
</clipPath>
</defs>
</svg>
