<svg width="22" height="30" viewBox="0 0 22 30" fill="none" xmlns="http://www.w3.org/2000/svg">
<path d="M16.2961 27.3007C17.0799 26.7078 17.7613 25.9905 18.3132 25.1774H16.2961V27.3007ZM5.6971 27.3024V25.1766H3.67664C4.22813 25.992 4.91287 26.7113 5.6971 27.3024ZM9.23039 28.9021C9.60396 28.9788 9.98765 29.0303 10.3781 29.0581C10.7879 29.0842 11.2003 29.0826 11.6118 29.0581C12.0031 29.0311 12.3867 28.9788 12.7628 28.9004V25.1757H9.23039V28.9021ZM20.5825 7.27483H20.5816L20.5639 7.31784L20.5825 7.27483Z" fill="#FFE4A3"/>
<path d="M21.2377 5.78987L20.9392 6.46617L22 4.06202L20.4653 1.5845L17.7297 2.59811V2.59642L17.7238 2.59811L15.7986 0.398865L13.268 1.85013L13.2621 1.8535L10.9996 0L8.74215 1.8476L8.9302 4.11261L8.8484 3.12599C7.41345 3.24335 5.99091 3.48114 4.59581 3.83687L4.28211 2.59979C5.7457 2.22744 7.23786 1.97809 8.743 1.85434L8.74215 1.8476L8.73794 1.85266L6.20055 0.398022L4.27958 2.59389L4.27621 2.59726L1.5339 1.58366L0 4.06118L0.587758 5.39522L2.07697 8.77757C4.32206 7.7813 6.71905 7.17065 9.16716 6.97129C10.3898 6.86928 11.6188 6.86985 12.8413 6.97298C14.0792 7.07417 15.2893 7.27824 16.4631 7.57844L16.9193 5.78397L16.9109 5.81854L16.4631 7.57844C17.6572 7.88286 18.8108 8.2851 19.9205 8.77588L20.4357 7.60796C19.2539 7.08476 18.0302 6.66164 16.7776 6.34306L16.867 5.98804C18.1496 6.31523 19.3909 6.74698 20.5816 7.27318L21.0994 6.09935C19.8338 5.53903 18.5236 5.08546 17.1824 4.74338L17.2667 4.41282C18.6379 4.76446 19.9644 5.22657 21.2377 5.78987ZM19.0325 3.41102L19.4053 3.0872L19.3117 2.60148L19.3074 2.5804L19.3277 2.58714L19.7965 2.74736L20.1693 2.42271L20.1861 2.40837L20.1912 2.4303L20.2865 2.91433L20.7528 3.07624L20.7739 3.08467L20.7562 3.09901L20.3843 3.42367L20.4787 3.90939L20.4821 3.92963L20.461 3.92288L19.9939 3.7635L19.6211 4.08732L19.6034 4.1025L19.5992 4.07973L19.5048 3.59569L19.0368 3.43463L19.0165 3.42788L19.0325 3.41102ZM1.43862 3.68929L1.4597 3.68086L1.92349 3.52233L2.01794 3.04166L2.02216 3.0189L2.03902 3.03408L2.40921 3.3562L2.87301 3.19767L2.89409 3.18924L2.88988 3.21116L2.79627 3.69182L3.16478 4.0148L3.18249 4.02913L3.16057 4.03756L2.69761 4.19778L2.60317 4.67676L2.59811 4.69868L2.58124 4.68435L2.21189 4.36138L1.74809 4.51991L1.72617 4.52666L1.73038 4.50558L1.82314 4.02491L1.45379 3.70279L1.43862 3.68929ZM2.93626 7.00586C2.62529 7.00505 2.32423 6.89645 2.08436 6.69856C1.84449 6.50066 1.68065 6.22572 1.62076 5.92058C1.77551 6.19712 2.02289 6.41018 2.31931 6.52224C2.61573 6.6343 2.94219 6.63817 3.24118 6.53316C3.54017 6.42816 3.79252 6.22101 3.95379 5.94822C4.11505 5.67542 4.17488 5.35447 4.12273 5.04189C4.23074 5.2461 4.28405 5.47478 4.27748 5.70569C4.2709 5.9366 4.20467 6.16188 4.08522 6.3596C3.96577 6.55733 3.79717 6.72077 3.59583 6.83402C3.39449 6.94726 3.16726 7.00647 2.93626 7.00586ZM5.23163 6.34053L4.91203 5.08069C6.23815 4.74345 7.5901 4.51751 8.95381 4.40523L8.9555 4.42631L9.06175 5.70049C7.76946 5.80686 6.4883 6.02096 5.23163 6.34053ZM9.1933 2.32742C9.1933 2.292 9.48086 2.38223 9.45809 2.37127C9.49182 2.2549 9.22197 1.89398 9.22197 1.89398C9.53482 2.35272 9.82575 1.71942 9.96152 1.73376C10.1774 1.77171 10.4127 2.3485 10.7247 1.89229C10.7348 1.87796 10.4582 2.26333 10.4902 2.37127C10.4692 2.3797 10.75 2.292 10.7508 2.32404C10.7576 4.02744 9.18487 4.04094 9.1933 2.32742ZM10.2263 4.74675C10.2271 4.71133 10.5139 4.80156 10.4919 4.79144C10.5257 4.67423 10.255 4.31331 10.255 4.31331C10.5687 4.77205 10.8596 4.13875 10.9945 4.15478C11.2121 4.19019 11.4474 4.76699 11.7585 4.31163C11.767 4.29729 11.492 4.68266 11.5232 4.79144C11.5039 4.79903 11.7838 4.71133 11.7838 4.74338C11.7906 6.44678 10.217 6.46027 10.2263 4.74675ZM11.2601 2.32742C11.2601 2.292 11.5477 2.38223 11.5249 2.37127C11.5587 2.2549 11.288 1.89398 11.288 1.89398C11.6017 2.35272 11.8926 1.71942 12.0284 1.73376C12.2451 1.77171 12.4804 2.3485 12.7915 1.89229C12.8016 1.87796 12.5251 2.26333 12.5563 2.37127C12.5369 2.3797 12.8168 2.292 12.8177 2.32404C12.8227 4.02744 11.25 4.04094 11.2601 2.32742ZM16.4783 4.49967C16.4328 4.57894 16.0491 6.44678 15.1847 6.00069C15.1797 6.03273 15.6595 5.80927 15.7016 5.49642C15.6537 5.43558 15.604 5.37624 15.5524 5.31849C15.2387 5.32608 14.9714 6.32535 14.586 5.81517C14.5658 5.78819 15.0861 5.58412 15.0355 5.17429C14.979 5.20802 14.7403 5.20465 14.6653 5.17597C14.4561 5.25693 14.5093 6.13477 13.9814 5.89022C13.9982 5.92058 14.5388 5.08996 14.2284 5.04611C14.172 5.18862 14.0092 5.39269 14.0067 5.54027C14.1492 5.68784 13.6289 5.72663 13.6517 5.5487C13.6567 5.50148 14.0564 5.05792 13.9468 4.60087C13.7984 4.48787 13.9603 3.76097 14.0455 3.60497C13.5462 3.61677 13.8439 3.44137 13.9333 3.14454C13.8355 3.07877 13.7621 3.03829 13.7655 2.9118C13.8081 2.89822 13.8531 2.89353 13.8976 2.89803C13.9422 2.90253 13.9853 2.91611 14.0244 2.93794C14.1762 3.00034 14.1694 2.93963 14.3145 2.85446C14.5101 2.73977 14.9655 2.66978 15.506 2.94553C15.5954 2.99107 16.1089 3.04082 16.1089 3.04082C16.1089 3.04082 15.6932 3.23056 15.2716 3.01805C15.42 3.11672 15.5355 3.25417 15.6865 3.3503C15.7472 3.38909 16.383 3.51558 16.383 3.51558C16.383 3.51558 15.8838 3.74832 15.5844 3.49872C15.3222 3.28031 15.0473 3.00456 14.661 3.12515C14.6965 3.13189 14.9326 3.24152 14.9385 3.23224C14.8854 3.33428 14.6206 3.43378 14.5447 3.3385C14.5084 3.58136 15.3373 4.38162 16.3931 4.19272C16.84 4.0207 16.5778 4.32596 16.4783 4.49967ZM2.16467 9.65119H5.69627V13.5336H2.16467V9.65119ZM5.69627 13.5336H9.2304V17.4143H5.69627V13.5336ZM2.16467 20.2536C2.16467 20.6052 2.18659 20.9535 2.22623 21.295H5.69627V17.4126H2.16467V20.2536ZM9.2304 17.4135H12.7629V21.2959H9.2304V17.4135ZM5.69711 21.2959H9.2304V25.1766H5.69711V21.2959ZM12.7637 17.4135H16.2961V21.2959H12.7637V25.1766H16.2961V21.2959H19.7628C19.8041 20.9527 19.8252 20.6044 19.8252 20.2494V17.4143H16.2953V13.5336H12.7629V17.4135H12.7637ZM9.2304 9.65119H12.7629V13.5336H9.2304V9.65119ZM16.2961 9.65119H19.8261V13.5336H16.2961V9.65119Z" fill="#FFE4A3"/>
</svg>
