<svg width="26" height="29" viewBox="0 0 26 29" fill="none" xmlns="http://www.w3.org/2000/svg">
<path d="M19.7789 25.4197C19.6925 25.6852 19.6445 25.8318 19.6347 25.8595L19.5345 26.1576H20.0257L19.9255 25.8595C19.8945 25.7715 19.8457 25.6249 19.7789 25.4197Z" fill="#FFE4A3"/>
<path d="M23.2431 23.7482C23.1031 23.72 22.995 23.6983 22.8671 23.6725C23.462 22.9504 24.0343 22.2556 24.6447 21.5146C23.8872 21.6927 23.208 21.8217 22.5492 22.0192C22.1788 22.1302 21.8297 22.3333 21.4946 22.5342C21.238 22.688 21.0182 22.9035 20.782 23.0916C20.9662 22.7889 21.2317 22.5528 21.4016 22.261C21.768 21.6316 22.3469 21.3852 23.0089 21.2482C23.1025 21.2288 23.1937 21.1976 23.2874 21.1787C23.7568 21.0839 24.151 20.8494 24.3886 20.4396C24.7472 19.821 25.0871 19.1881 25.3832 18.5377C25.6277 18.0006 25.7972 17.4293 26 16.8732C25.0633 17.5537 23.822 17.8207 23.377 19.0421C23.5681 18.2412 23.697 17.4175 24.5675 17.0469C24.611 17.0284 24.6474 16.994 24.6897 16.9718C25.1689 16.72 25.4616 16.3148 25.546 15.7944C25.6721 15.0168 25.7599 14.2327 25.8463 13.4494C25.8755 13.185 25.851 12.9147 25.851 12.6388C25.5104 13.0131 25.1441 13.3464 24.8656 13.7414C24.5927 14.1285 24.4092 14.5784 24.2105 14.9553C24.1088 14.0284 24.1718 13.895 24.7878 13.1649C24.9935 12.9212 25.1884 12.5947 25.218 12.2895C25.3158 11.2837 25.0441 10.3154 24.7894 9.34406C24.4935 10.051 23.8969 10.6244 23.9669 11.4673C23.6568 10.8745 23.5984 10.3165 23.9516 9.72436C24.0847 9.50111 24.1477 9.14545 24.0713 8.90452C23.8246 8.12671 23.4982 7.37418 23.2025 6.61191C23.1552 6.62083 23.108 6.62974 23.0607 6.63865C22.9671 7.24338 22.8735 7.84811 22.7829 8.43333C22.6647 8.23384 22.5027 8.0096 22.3947 7.76179C22.3136 7.57569 22.2286 7.34118 22.2733 7.15981C22.405 6.62598 22.3085 6.16671 21.9767 5.74245C21.6675 5.34699 21.3599 4.9502 21.0516 4.55399C21.0211 4.57145 20.9906 4.58891 20.9601 4.60637C20.9845 5.04365 21.0088 5.48091 21.037 5.98723C20.7232 5.6207 20.3833 5.31086 20.1503 4.93481C19.487 3.86468 18.4357 3.47317 17.2273 3.17387C18.0637 3.85826 18.6925 4.67648 19.6683 5.07671C19.9921 5.2095 20.2699 5.46275 20.554 5.68014C20.6807 5.77711 20.7711 5.92155 20.8597 6.02336C20.4115 6.00134 19.981 5.9802 19.4497 5.95411C19.9394 6.3865 20.3247 6.7592 20.7462 7.08507C20.9543 7.24599 21.2188 7.3698 21.476 7.42435C22.107 7.55817 22.462 7.88496 22.5831 8.55396C22.1166 8.09054 21.5302 8.11017 20.9048 8.02633C21.1138 8.29055 21.2825 8.49148 21.4372 8.70267C21.5927 8.91492 21.7441 9.13144 21.8798 9.35668C22.1299 9.77205 22.4646 10.0608 22.9311 10.2288C23.5044 10.4354 23.766 10.9217 23.7011 11.6385C23.3938 10.7141 22.5853 10.673 21.9054 10.3687C22.1561 11.0116 22.4013 11.5955 22.6108 12.192C22.7747 12.6588 23.0135 13.037 23.4387 13.3219C24.1137 13.7744 24.2285 14.1718 24.0066 14.9683C23.561 13.8593 23.2643 13.5299 22.2884 13.0671C22.3617 13.553 22.4794 14.0317 22.497 14.5141C22.5314 15.4556 22.6672 16.3392 23.3559 17.062C23.4984 17.2116 23.6217 17.4895 23.5863 17.6765C23.5002 18.1317 23.3156 18.5682 23.1707 19.0123C23.1302 19.0131 23.0898 19.0139 23.0493 19.0146C23.5632 17.7007 22.6539 16.9848 21.9735 16.1725C21.8543 16.8542 21.7857 17.5234 21.6132 18.1647C21.386 19.0095 21.3027 19.8162 21.67 20.6498C21.7868 20.9149 21.8477 21.3233 21.7236 21.5515C21.4584 22.0389 21.0556 22.4513 20.7092 22.8945C20.6751 22.873 20.6411 22.8515 20.607 22.83C21.0015 22.3208 21.321 21.7699 21.1618 21.1165C21.0178 20.5253 20.7878 19.9552 20.5985 19.3842C20.1712 20.1159 19.7997 20.8249 19.3585 21.4875C18.9117 22.1585 18.3964 22.7836 18.4689 23.6839H7.48757C7.57515 22.8382 7.10403 22.2416 6.6931 21.6032C6.26126 20.9323 5.9 20.2159 5.50764 19.5196C5.48189 19.4739 5.45401 19.4294 5.37894 19.3037C5.16528 19.9718 4.94064 20.553 4.7978 21.1536C4.64385 21.801 4.99536 22.3377 5.3249 22.8693C5.11004 22.6919 4.95469 22.4761 4.7614 22.3025C4.08459 21.6946 4.08201 20.9869 4.41822 20.2181C4.42781 20.1962 4.44134 20.1741 4.44361 20.1511C4.47956 19.7872 4.58957 19.4112 4.53422 19.0615C4.38208 18.1001 4.16042 17.1498 3.96503 16.189C3.34453 16.9768 2.4105 17.6564 2.86727 18.9449C2.23905 17.9951 2.2214 17.4419 2.84633 16.7176C3.23259 16.2699 3.3737 15.7714 3.41028 15.2082C3.43972 14.755 3.49228 14.3028 3.54852 13.852C3.58096 13.5919 3.64108 13.3353 3.70305 12.9996C3.27157 13.3028 2.85842 13.508 2.56432 13.8239C2.27568 14.134 2.10808 14.5568 1.92174 14.8719C1.78691 13.9719 1.87577 13.8145 2.62754 13.2247C2.89462 13.0151 3.11226 12.7017 3.26176 12.3919C3.54678 11.8013 3.76695 11.1794 4.01292 10.57C4.03569 10.5136 4.05038 10.4539 4.08085 10.3579C3.36988 10.6694 2.56156 10.734 2.2544 11.5747C2.25637 10.7227 2.44184 10.4591 3.15602 10.1636C3.37164 10.0743 3.61428 9.96297 3.75182 9.78861C4.19289 9.22944 4.59056 8.63602 5.00497 8.05582C4.99542 8.02758 4.98586 7.99933 4.9763 7.97109C4.43376 8.12431 3.89122 8.27753 3.38372 8.42085C3.59424 7.91819 3.86185 7.39835 4.60503 7.40728C4.72857 7.40877 4.87853 7.36113 4.97287 7.28347C5.46704 6.87671 5.94723 6.45296 6.43227 6.03512C6.42571 6.00877 6.41914 5.98243 6.41257 5.95608C5.97507 5.98125 5.53757 6.00642 5.09582 6.03184C5.42349 5.56576 5.88481 5.23372 6.40191 5.01859C7.34256 4.62726 7.92063 3.80952 8.76699 3.16546C7.53494 3.46879 6.48476 3.86518 5.81554 4.92802C5.57482 5.31032 5.23234 5.62853 4.92766 5.98612C4.95252 5.48887 4.97484 5.04244 4.99717 4.596C4.95775 4.5842 4.91833 4.57241 4.87891 4.56061C4.52125 5.0519 4.13349 5.52497 3.81993 6.04296C3.68405 6.26742 3.59757 6.61516 3.66828 6.85364C3.87354 7.54587 3.43264 7.9674 3.18399 8.41182C3.09341 7.8418 2.99788 7.24059 2.90234 6.63938C2.86282 6.63115 2.82329 6.62292 2.78377 6.61469C2.4982 7.3031 2.19998 7.98663 1.93194 8.6818C1.77784 9.08147 1.81365 9.49026 2.06065 9.85099C2.44102 10.4065 2.23276 10.9319 1.99662 11.4721C2.08517 10.6124 1.45038 10.0475 1.16152 9.33117C1.00305 9.96838 0.895226 10.6023 0.774372 11.2338C0.608628 12.0997 0.728412 12.8697 1.43393 13.4866C1.9172 13.9093 1.73187 14.486 1.72226 15.0306C1.61224 13.941 0.681238 13.4257 0.100249 12.6512C0.115807 13.4376 0.179785 14.2086 0.245517 14.9794C0.329992 15.9699 0.696345 16.776 1.65532 17.2284C1.86316 17.3265 2.09715 17.495 2.18705 17.6915C2.38794 18.1306 2.5056 18.6077 2.65717 19.0694C2.62843 19.0962 2.5997 19.1231 2.57096 19.15C2.19366 17.8266 0.913007 17.5649 0 16.7936C0.00535533 16.8976 -0.00436432 16.9483 0.0118476 16.9886C0.382043 17.9084 0.731742 18.8374 1.13442 19.7428C1.50367 20.5731 2.09755 21.1515 3.05778 21.2846C3.66798 21.3693 4.17755 21.6408 4.51575 22.2067C4.70244 22.5191 4.98177 22.776 5.21934 23.058C5.19987 23.0828 5.1804 23.1077 5.16094 23.1325C4.43045 22.2538 3.43492 21.9522 2.37358 21.7832C2.15131 21.7478 1.93747 21.6585 1.72044 21.5917C1.61808 21.5602 1.51739 21.5233 1.41594 21.4889C1.3978 21.5168 1.37966 21.5447 1.36152 21.5726C1.93762 22.2673 2.51371 22.9619 3.10846 23.6789C2.96302 23.7036 2.85082 23.7227 2.7164 23.7455C3.05048 25.1757 3.38438 26.583 3.70362 27.9935C3.75827 28.2349 3.91366 28.2104 4.08087 28.2104C10.021 28.2102 15.9611 28.2086 21.9012 28.2158C22.1427 28.2161 22.2366 28.1329 22.2849 27.9098C22.4266 27.2554 22.5856 26.6046 22.7364 25.9521C22.9052 25.2217 23.0724 24.491 23.2431 23.7482ZM5.76387 26.8051H5.35093V25.0654H5.76387V26.8051ZM7.73565 26.7025C7.60532 26.797 7.42454 26.8442 7.19323 26.8442C6.95047 26.8442 6.76316 26.7905 6.63122 26.6829C6.49929 26.5754 6.43248 26.4256 6.43093 26.2334H6.83159C6.8332 26.3409 6.86457 26.4158 6.9257 26.4582C6.98676 26.5005 7.08087 26.5217 7.20789 26.5217C7.40496 26.5217 7.50356 26.4549 7.50356 26.3214C7.50356 26.2627 7.48195 26.2191 7.43879 26.1906C7.39563 26.1621 7.31295 26.1365 7.19077 26.1136L7.04908 26.0868C6.6614 26.0216 6.46757 25.8399 6.46757 25.5419C6.46757 25.3839 6.52659 25.2584 6.6447 25.1657C6.76274 25.0727 6.93012 25.0263 7.14684 25.0263C7.37808 25.0263 7.55486 25.0753 7.67705 25.173C7.79916 25.2706 7.86436 25.4108 7.8725 25.5932H7.48153C7.47668 25.5086 7.44854 25.4467 7.39724 25.4075C7.34594 25.3684 7.26488 25.3488 7.15414 25.3488C6.97658 25.3488 6.8878 25.4075 6.8878 25.5248C6.8878 25.5834 6.90935 25.6283 6.95258 25.6592C6.99567 25.6902 7.07266 25.7162 7.18347 25.7373L7.33008 25.7643C7.5402 25.8018 7.69291 25.8624 7.78821 25.9463C7.88352 26.0302 7.93117 26.1462 7.93117 26.2944C7.93117 26.472 7.86597 26.6081 7.73565 26.7025ZM10.2303 26.8051H9.74168L9.24073 26.0526L9.00619 26.2847V26.8051H8.59325V25.0654H9.00619V25.818L9.72701 25.0654H10.2303L9.53149 25.7765L10.2303 26.8051ZM12.2682 26.143C12.2682 26.3662 12.201 26.5388 12.0666 26.661C11.9322 26.7832 11.7469 26.8442 11.5107 26.8442C11.2843 26.8442 11.1018 26.7832 10.9634 26.661C10.8249 26.5421 10.7557 26.3694 10.7557 26.143V25.0654H11.1686V26.1479C11.1686 26.2586 11.1983 26.343 11.2578 26.4008C11.3173 26.4586 11.4016 26.4875 11.5107 26.4875C11.6198 26.4875 11.7045 26.4586 11.7648 26.4008C11.825 26.343 11.8552 26.2586 11.8552 26.1479V25.0654H12.2682L12.2682 26.143ZM14.2154 26.7025C14.0851 26.797 13.9043 26.8442 13.673 26.8442C13.4303 26.8442 13.243 26.7905 13.111 26.6829C12.9791 26.5754 12.9123 26.4256 12.9107 26.2334H13.3114C13.313 26.3409 13.3444 26.4158 13.4055 26.4582C13.4666 26.5005 13.5607 26.5217 13.6877 26.5217C13.8848 26.5217 13.9834 26.4549 13.9834 26.3214C13.9834 26.2627 13.9617 26.2191 13.9186 26.1906C13.8754 26.1621 13.7927 26.1365 13.6706 26.1136L13.5289 26.0868C13.1412 26.0216 12.9474 25.8399 12.9474 25.5419C12.9474 25.3839 13.0064 25.2584 13.1245 25.1657C13.2425 25.0727 13.4099 25.0263 13.6266 25.0263C13.8579 25.0263 14.0347 25.0753 14.1568 25.173C14.279 25.2706 14.3442 25.4108 14.3523 25.5932H13.9613C13.9565 25.5086 13.9283 25.4467 13.877 25.4075C13.8257 25.3684 13.7447 25.3488 13.6339 25.3488C13.4564 25.3488 13.3676 25.4075 13.3676 25.5248C13.3676 25.5834 13.3891 25.6283 13.4324 25.6592C13.4755 25.6902 13.5525 25.7162 13.6633 25.7373L13.8099 25.7643C14.02 25.8018 14.1727 25.8624 14.268 25.9463C14.3633 26.0302 14.411 26.1462 14.411 26.2944C14.411 26.472 14.3458 26.6081 14.2154 26.7025ZM16.3876 25.4344H15.8525V26.8051H15.4371V25.4344H14.9045V25.0654H16.3876V25.4344ZM18.0343 26.8051H17.5456L16.9177 25.0654H17.3599L17.6141 25.8303C17.6938 26.0794 17.7533 26.2831 17.7924 26.4411C17.8494 26.2179 17.9072 26.0143 17.9659 25.8303L18.2175 25.0654H18.6427L18.0343 26.8051ZM20.2455 26.8051L20.1429 26.5022H19.4197L19.3195 26.8051H18.8968L19.537 25.0654H20.0281L20.6829 26.8051H20.2455Z" fill="#FFE4A3"/>
<path d="M25.6785 23.3773C25.0294 23.3773 24.4583 23.3673 23.8883 23.388C23.8028 23.3911 23.6758 23.5239 23.6479 23.6199C23.5448 23.975 23.4748 24.3397 23.3929 24.7009C23.1687 25.69 22.9447 26.6791 22.7147 27.6946H25.6501C25.3529 27.1946 25.1328 26.7052 24.8054 26.3031C24.3676 25.7653 24.4069 25.321 24.8133 24.7941C25.1353 24.3766 25.3697 23.8914 25.6785 23.3773Z" fill="#FFE4A3"/>
<path d="M2.03368 23.3824C1.87017 23.3571 1.70001 23.3744 1.53261 23.3744C1.13649 23.3743 0.740359 23.3744 0.276978 23.3744C0.692597 24.06 1.04942 24.6666 1.4263 25.2606C1.55776 25.4677 1.57113 25.622 1.43126 25.84C1.04656 26.4393 0.693426 27.0589 0.30319 27.7117H3.2547C2.92194 26.2997 2.59935 24.9186 2.26334 23.5409C2.24635 23.4712 2.11892 23.3956 2.03368 23.3824Z" fill="#FFE4A3"/>
<path d="M12.0464 2.9794L13.0145 2.47046L13.9825 2.9794L13.7977 1.90145L14.5808 1.13804L13.4985 0.980772L13.0145 1.90735e-05L12.5304 0.980772L11.4481 1.13804L12.2313 1.90145L12.0464 2.9794Z" fill="#FFE4A3"/>
<path d="M15.1509 3.2747L15.7292 2.97067L16.3075 3.2747L16.197 2.63076L16.6649 2.17471L16.0183 2.08076L15.7292 1.49489L15.44 2.08076L14.7935 2.17471L15.2613 2.63076L15.1509 3.2747Z" fill="#FFE4A3"/>
<path d="M9.67308 3.24986L10.2514 2.94583L10.8297 3.24986L10.7192 2.60592L11.1871 2.14988L10.5405 2.05592L10.2514 1.47005L9.96223 2.05592L9.31567 2.14988L9.78352 2.60592L9.67308 3.24986Z" fill="#FFE4A3"/>
<path d="M12.561 12.3651C12.561 11.936 12.447 11.5682 12.219 11.2616C11.991 10.9552 11.6767 10.7441 11.2761 10.6282C11.6077 10.4852 11.8701 10.2757 12.0636 9.99991C12.2569 9.72405 12.3538 9.42265 12.3538 9.09575C12.3538 8.47601 12.0981 7.98389 11.587 7.61942C11.0757 7.25513 10.3747 7.07285 9.48356 7.07285C8.48885 7.07285 7.74443 7.27205 7.25063 7.6705C6.75668 8.06895 6.49246 8.67351 6.45796 9.48396H8.43704C8.45776 9.17744 8.54922 8.95956 8.71163 8.83011C8.87384 8.70079 9.1243 8.63599 9.46285 8.63599C9.75975 8.63599 9.9895 8.69568 10.1519 8.81476C10.3141 8.93402 10.3954 9.09924 10.3954 9.31026C10.3954 9.56919 10.3159 9.75646 10.1571 9.87217C9.99806 9.98806 9.74942 10.0459 9.41104 10.0459H8.81005V11.4455H9.35924C9.72529 11.4455 9.99646 11.5086 10.1726 11.6346C10.3488 11.7607 10.4368 11.9666 10.4368 12.2527C10.4368 12.4843 10.3488 12.6682 10.1726 12.8044C9.99646 12.9407 9.746 13.0087 9.42138 13.0087C8.99998 13.0087 8.69252 12.9185 8.49918 12.738C8.30572 12.5576 8.20907 12.2562 8.20907 11.8338H6.22998C6.23681 12.7466 6.51495 13.448 7.06413 13.9384C7.61327 14.4288 8.42666 14.674 9.50427 14.674C10.4713 14.674 11.2243 14.4595 11.7631 14.0304C12.2949 13.6081 12.561 13.0531 12.561 12.3651Z" fill="#FFE4A3"/>
<path d="M16.4464 7.07285C15.3618 7.07285 14.5398 7.39975 13.9803 8.05364C13.4138 8.71435 13.1306 9.65429 13.1306 10.8734C13.1306 12.0994 13.4138 13.036 13.9803 13.683C14.5398 14.3437 15.3618 14.674 16.4464 14.674C17.5307 14.674 18.3563 14.3437 18.9228 13.683C19.4824 13.0291 19.7621 12.0927 19.7621 10.8734C19.7621 9.66116 19.4824 8.72122 18.9228 8.05364C18.3493 7.39975 17.524 7.07285 16.4464 7.07285ZM17.3271 12.5183C17.1406 12.8452 16.8469 13.0087 16.4464 13.0087C16.0594 13.0087 15.7693 12.8452 15.576 12.5183C15.3825 12.2051 15.2858 11.6568 15.2858 10.8734C15.2858 10.0903 15.3825 9.53853 15.576 9.21833C15.7763 8.89825 16.0664 8.73814 16.4464 8.73814C16.8469 8.73814 17.1406 8.90336 17.3271 9.23364C17.5136 9.56407 17.6068 10.1107 17.6068 10.8734C17.6068 11.6432 17.5136 12.1914 17.3271 12.5183Z" fill="#FFE4A3"/>
<path d="M7.2454 16.7003C7.50789 16.7003 7.6748 16.8002 7.7462 17H8.45079C8.41395 16.7275 8.285 16.5119 8.06398 16.353C7.84751 16.1962 7.57231 16.1179 7.23848 16.1179C6.83784 16.1179 6.5258 16.2315 6.30249 16.4585C6.07681 16.6878 5.96399 16.9966 5.96399 17.3848C5.96399 17.773 6.07222 18.0807 6.28866 18.3077C6.50279 18.537 6.78949 18.6516 7.14871 18.6516C7.32138 18.6516 7.47796 18.6199 7.61841 18.5563C7.75882 18.4928 7.8671 18.4008 7.94308 18.2805L8.01218 18.5972H8.48188V17.2077H7.31792V17.7254H7.77037C7.74503 17.8298 7.68803 17.9132 7.59943 17.9757C7.51074 18.0382 7.4054 18.0694 7.28341 18.0694C7.09223 18.0694 6.9443 18.0092 6.83957 17.8888C6.73475 17.7685 6.68242 17.6005 6.68242 17.3848C6.68242 17.1691 6.73189 17.0011 6.83092 16.8808C6.9299 16.7605 7.06806 16.7003 7.2454 16.7003Z" fill="#FFE4A3"/>
<path d="M9.04484 16.4619C8.80766 16.6935 8.68909 17.0011 8.68909 17.3848C8.68909 17.7708 8.80766 18.0773 9.04484 18.3043C9.28199 18.5358 9.59403 18.6516 9.98087 18.6516C10.3677 18.6516 10.6797 18.5358 10.9169 18.3043C11.154 18.0773 11.2726 17.7708 11.2726 17.3848C11.2726 17.0011 11.154 16.6935 10.9169 16.4619C10.6773 16.2326 10.3654 16.1179 9.98087 16.1179C9.59627 16.1179 9.28432 16.2326 9.04484 16.4619ZM10.3988 16.8893C10.5024 17.0108 10.5542 17.1759 10.5542 17.3848C10.5542 17.5982 10.5024 17.764 10.3988 17.882C10.2952 18.0023 10.1558 18.0625 9.98087 18.0625C9.80583 18.0625 9.66655 18.0023 9.56293 17.882C9.45933 17.764 9.40752 17.5982 9.40752 17.3848C9.40752 17.1759 9.45933 17.0108 9.56293 16.8893C9.66655 16.7679 9.80583 16.7071 9.98087 16.7071C10.1558 16.7071 10.2952 16.7679 10.3988 16.8893Z" fill="#FFE4A3"/>
<path d="M13.5451 18.2702C13.7569 18.05 13.8629 17.7548 13.8629 17.3847C13.8629 17.0147 13.7569 16.7196 13.5451 16.4993C13.3332 16.2814 13.0144 16.1724 12.5884 16.1724H11.5143V18.5972H12.5884C13.0144 18.5972 13.3332 18.4882 13.5451 18.2702ZM12.205 18.025V16.7445H12.5746C12.9545 16.7445 13.1445 16.9579 13.1445 17.3847C13.1445 17.8116 12.9545 18.025 12.5746 18.025H12.205Z" fill="#FFE4A3"/>
<path d="M14.7955 16.1724H14.1047V18.5972H14.7955V16.1724Z" fill="#FFE4A3"/>
<path d="M16.6397 18.5972H17.3685V16.1724H16.7123V16.5675C16.7123 16.9466 16.718 17.303 16.7295 17.6368C16.6281 17.4438 16.5153 17.2428 16.3911 17.034L15.8695 16.1724H15.1407V18.5972H15.797V18.2021C15.797 17.8253 15.7912 17.4698 15.7797 17.1362C15.8649 17.3018 15.9777 17.5017 16.1182 17.7356L16.6397 18.5972Z" fill="#FFE4A3"/>
<path d="M17.5067 18.5972H18.2113L18.3149 18.2805H19.2785L19.3822 18.5972H20.1144L19.2095 16.1724H18.3806L17.5067 18.5972ZM18.6742 17.1599C18.6949 17.0919 18.734 16.9636 18.7916 16.7752C18.8054 16.8364 18.8446 16.9648 18.909 17.1599L19.0921 17.7185H18.4946L18.6742 17.1599Z" fill="#FFE4A3"/>
</svg>
