<svg width="225" height="35" viewBox="0 0 225 35" fill="none" xmlns="http://www.w3.org/2000/svg">
<g clip-path="url(#clip0_5070_24674)">
<path d="M13.7627 17.7643L30.4527 25.8471C30.7435 25.9885 31.082 25.7772 31.082 25.453V14.0217C31.082 13.8532 30.9867 13.7007 30.8341 13.6276L14.1441 5.5432C13.8533 5.40335 13.5148 5.61472 13.5148 5.93733V17.3686C13.5148 17.5371 13.6101 17.6896 13.7611 17.7627" fill="white"/>
<path d="M22.2984 0C10.0042 0 0 7.04184 0 15.6967C0 24.3516 10.0042 31.3935 22.2984 31.3935C34.5926 31.3935 44.5983 24.3516 44.5983 15.6967C44.5983 7.04184 34.5942 0 22.2984 0ZM29.1495 28.1213L21.8486 24.4899C21.5578 24.3437 21.2161 24.5567 21.2145 24.8809L21.2098 28.5647C21.2098 28.8158 20.9984 29.0176 20.7473 29.0065C10.4682 28.4741 2.34728 22.71 2.34728 15.6983C2.34728 9.98667 7.73474 5.10299 15.2883 3.20069C15.3916 3.17368 15.5029 3.18639 15.5982 3.23407L22.9023 6.86862C23.1931 7.01324 23.5348 6.80187 23.5348 6.47608L23.5396 2.84312C23.5396 2.59202 23.7541 2.38701 24.0052 2.40131C34.2112 2.98297 42.251 8.72324 42.251 15.6983C42.251 21.3703 36.9351 26.2253 29.461 28.1562C29.3577 28.1833 29.2464 28.1721 29.1495 28.1229V28.1213Z" fill="white"/>
<path d="M193.218 17.8453L209.908 25.9281C210.198 26.0696 210.537 25.8582 210.537 25.534V14.1027C210.537 13.9343 210.442 13.7817 210.289 13.7086L193.599 5.62423C193.308 5.48438 192.97 5.69574 192.97 6.01836V17.4496C192.97 17.6181 193.065 17.7707 193.216 17.8438" fill="white"/>
<path d="M201.755 0.0810242C189.459 0.0810242 179.457 7.12287 179.457 15.7778C179.457 24.4327 189.459 31.4745 201.755 31.4745C214.051 31.4745 224.055 24.4327 224.055 15.7778C224.055 7.12287 214.051 0.0810242 201.755 0.0810242ZM208.604 28.2007L201.304 24.5693C201.013 24.4231 200.671 24.6361 200.669 24.9603L200.665 28.6441C200.665 28.8952 200.453 29.097 200.202 29.0859C189.923 28.5535 181.802 22.7894 181.802 15.7778C181.802 10.0661 187.19 5.18243 194.743 3.28013C194.847 3.25311 194.958 3.26582 195.053 3.3135L202.357 6.94805C202.648 7.09267 202.99 6.8813 202.99 6.55551L202.995 2.92255C202.995 2.66987 203.209 2.46645 203.46 2.48075C213.666 3.0624 221.706 8.80267 221.706 15.7778C221.706 21.4497 216.39 26.3048 208.916 28.2357C208.813 28.2627 208.701 28.2516 208.604 28.2023V28.2007Z" fill="white"/>
<path fill-rule="evenodd" clip-rule="evenodd" d="M84.4258 26.3969V31.554H94.937V34.4336H84.2336C83.7504 34.4336 83.2991 34.3621 82.8811 34.2159C82.4616 34.0729 82.0913 33.8742 81.7687 33.6231C81.4461 33.372 81.1934 33.0828 81.0074 32.757C80.8231 32.4312 80.7293 32.0784 80.7293 31.7033V26.2444C80.7293 25.8677 80.8215 25.5165 81.0074 25.1907C81.1934 24.8649 81.4461 24.5757 81.7687 24.3246C82.0913 24.0735 82.4616 23.8764 82.8811 23.7318C83.3007 23.5872 83.7504 23.5157 84.2336 23.5157H94.9131V26.3953H84.4274L84.4258 26.3969ZM108.491 23.5173C108.975 23.5173 109.429 23.5888 109.857 23.7334C110.282 23.878 110.653 24.0751 110.967 24.3262C111.282 24.5773 111.532 24.8665 111.716 25.1923C111.902 25.5181 111.994 25.8693 111.994 26.246V34.4336H101.291C100.808 34.4336 100.351 34.3621 99.9255 34.2159C99.498 34.0729 99.1277 33.8742 98.8147 33.6231C98.5 33.372 98.2505 33.0828 98.0661 32.757C97.8802 32.4312 97.788 32.0784 97.788 31.7033V27.5253H108.299V26.3953H97.788V23.5157H108.491V23.5173ZM108.298 30.049H101.485V31.554H108.298V30.049ZM125.162 23.5173V26.3969H117.599V34.4336H113.903V26.246C113.903 25.8693 113.995 25.5181 114.181 25.1923C114.365 24.8665 114.619 24.5773 114.942 24.3262C115.265 24.0751 115.638 23.878 116.066 23.7334C116.492 23.5888 116.948 23.5173 117.431 23.5173H125.162ZM141.231 26.7926H137.511V26.3969H130.698V27.5269H137.705C138.188 27.5269 138.647 27.5984 139.082 27.743C139.518 27.8876 139.891 28.0847 140.206 28.3358C140.521 28.5869 140.769 28.8745 140.954 29.2019C141.14 29.5277 141.233 29.8789 141.233 30.2556V31.7049C141.233 32.08 141.14 32.4328 140.954 32.7586C140.769 33.0844 140.521 33.3736 140.206 33.6247C139.891 33.8758 139.518 34.0729 139.082 34.2175C138.649 34.3621 138.188 34.4352 137.705 34.4352H130.504C130.021 34.4352 129.569 34.3637 129.15 34.2175C128.732 34.0745 128.361 33.8758 128.039 33.6247C127.716 33.3736 127.462 33.0844 127.278 32.7586C127.092 32.4328 127 32.08 127 31.7049V31.1582H130.696V31.554H137.509V30.424H130.502C130.019 30.424 129.568 30.3525 129.148 30.2079C128.73 30.0633 128.36 29.8662 128.037 29.6151C127.715 29.364 127.46 29.0764 127.276 28.749C127.09 28.4232 126.998 28.072 126.998 27.6953V26.246C126.998 25.8693 127.09 25.5181 127.276 25.1923C127.46 24.8665 127.715 24.5773 128.037 24.3262C128.36 24.0751 128.73 23.878 129.148 23.7334C129.568 23.5888 130.017 23.5173 130.502 23.5173H137.703C138.186 23.5173 138.645 23.5888 139.081 23.7334C139.516 23.878 139.89 24.0751 140.204 24.3262C140.519 24.5773 140.767 24.8665 140.953 25.1923C141.139 25.5181 141.231 25.8693 141.231 26.246V26.7926ZM123.379 5.85147H119.586V4.74061H109.728V7.11172H119.804C120.287 7.11172 120.746 7.18324 121.181 7.32786C121.617 7.47248 121.998 7.66954 122.329 7.92064C122.659 8.17174 122.917 8.46574 123.103 8.80584C123.287 9.14434 123.381 9.50827 123.381 9.89763V12.5707C123.381 12.9601 123.289 13.324 123.103 13.6625C122.917 14.001 122.659 14.2966 122.329 14.5477C121.998 14.7988 121.615 14.9959 121.181 15.1405C120.746 15.2851 120.287 15.3566 119.804 15.3566H109.558C109.059 15.3566 108.592 15.2851 108.156 15.1405C107.721 14.9959 107.342 14.7988 107.02 14.5477C106.697 14.2966 106.443 14.001 106.259 13.6625C106.074 13.324 105.98 12.9601 105.98 12.5707V11.3104H109.726V12.4213H119.584V10.0502H109.556C109.057 10.0502 108.59 9.97868 108.155 9.83406C107.719 9.68944 107.341 9.49238 107.018 9.24128C106.696 8.99018 106.441 8.69459 106.257 8.35767C106.073 8.01917 105.979 7.65524 105.979 7.26588V4.59281C105.979 4.20345 106.071 3.83952 106.257 3.50101C106.441 3.16251 106.696 2.86691 107.018 2.61582C107.341 2.36472 107.719 2.16766 108.155 2.02304C108.59 1.87842 109.057 1.8069 109.556 1.8069H119.802C120.285 1.8069 120.744 1.87842 121.18 2.02304C121.615 2.16766 121.997 2.36472 122.327 2.61582C122.658 2.86691 122.915 3.16092 123.101 3.50101C123.285 3.83952 123.379 4.20345 123.379 4.59281V5.85306V5.85147ZM136.621 4.44024C137.104 4.44024 137.56 4.51176 137.986 4.65638C138.413 4.801 138.784 4.99806 139.097 5.24916C139.411 5.50025 139.661 5.7879 139.845 6.11528C140.031 6.44107 140.123 6.79229 140.123 7.16894V12.6279C140.123 13.0046 140.031 13.3558 139.845 13.6816C139.659 14.0074 139.41 14.2966 139.097 14.5477C138.782 14.7988 138.412 14.9959 137.986 15.1405C137.56 15.2851 137.104 15.3566 136.621 15.3566H129.614V19.6856H125.917V4.44024H136.621ZM129.614 12.4769H136.427V7.31991H129.614V12.4769ZM141.911 4.44024H145.608V15.3566H141.911V4.44024ZM145.608 0.864494V3.76323H141.911V0.864494H145.608ZM159.429 4.44024V7.31991H151.866V15.3566H148.17V7.16894C148.17 6.79229 148.262 6.44107 148.448 6.11528C148.634 5.78949 148.888 5.50025 149.209 5.24916C149.532 4.99806 149.905 4.801 150.332 4.65638C150.76 4.51176 151.214 4.44024 151.698 4.44024H159.429ZM161.362 4.44024H165.058V15.3566H161.362V4.44024ZM165.058 0.864494V3.76323H161.362V0.864494H165.058ZM170.616 7.31991V12.4769H175.811V15.3566H170.447C169.964 15.3566 169.505 15.2851 169.069 15.1389C168.636 14.9959 168.26 14.7972 167.946 14.5461C167.631 14.295 167.382 14.0058 167.197 13.68C167.013 13.3542 166.919 13.0014 166.919 12.6263V1.203H170.616V4.44024H175.811V7.31991H170.616ZM67.2829 5.79585H63.4894V4.68498H53.6315V7.0561H63.7072C64.1903 7.0561 64.6496 7.12762 65.085 7.27224C65.5205 7.41686 65.9019 7.61392 66.2324 7.86502C66.563 8.11611 66.8204 8.41171 67.0048 8.75021C67.1907 9.08872 67.2829 9.45265 67.2829 9.84201V12.5151C67.2829 12.9044 67.1907 13.2684 67.0048 13.6069C66.8204 13.9454 66.5614 14.241 66.2324 14.4921C65.9019 14.7432 65.5189 14.9402 65.085 15.0848C64.6496 15.2295 64.1919 15.301 63.7072 15.301H53.463C52.964 15.301 52.4968 15.2295 52.0613 15.0848C51.6259 14.9402 51.2477 14.7432 50.925 14.4921C50.6024 14.241 50.3482 13.9454 50.1638 13.6069C49.9779 13.2684 49.8857 12.9044 49.8857 12.5151V11.2548H53.6315V12.3657H63.4894V9.99457H53.4614C52.9624 9.99457 52.4952 9.92306 52.0597 9.77844C51.6243 9.63382 51.2461 9.43676 50.9235 9.18566C50.6008 8.93456 50.3466 8.64056 50.1622 8.30205C49.9763 7.96355 49.8841 7.59962 49.8841 7.21026V4.53719C49.8841 4.14783 49.9763 3.78389 50.1622 3.44539C50.3466 3.10689 50.6008 2.81129 50.9235 2.56019C51.2461 2.3091 51.6243 2.11203 52.0597 1.96741C52.4952 1.82279 52.9624 1.75128 53.4614 1.75128H63.7056C64.1887 1.75128 64.648 1.82279 65.0834 1.96741C65.5189 2.11203 65.9003 2.3091 66.2308 2.56019C66.5614 2.81129 66.8189 3.1053 67.0032 3.44539C67.1891 3.78389 67.2813 4.14783 67.2813 4.53719V5.79744L67.2829 5.79585ZM80.4512 4.38462C80.9343 4.38462 81.3888 4.45614 81.8163 4.60075C82.2438 4.74537 82.6141 4.94244 82.9272 5.19353C83.2419 5.44463 83.4914 5.73228 83.6757 6.05966C83.8617 6.38545 83.9538 6.73667 83.9538 7.11331V11.2914H73.4427V12.4197H83.9538V15.2994H73.2504C72.7673 15.2994 72.316 15.2279 71.8964 15.0833C71.4785 14.9386 71.1082 14.7416 70.7856 14.4905C70.4629 14.2394 70.2103 13.9501 70.0243 13.6244C69.84 13.2986 69.7462 12.9473 69.7462 12.5707V7.11172C69.7462 6.73508 69.8384 6.38386 70.0243 6.05807C70.2103 5.73228 70.4629 5.44304 70.7856 5.19194C71.1082 4.94085 71.4785 4.74378 71.8964 4.59917C72.316 4.45455 72.7657 4.38303 73.2504 4.38303H80.4512V4.38462ZM80.2573 8.77087V7.26588H73.4443V8.77087H80.2573ZM97.1952 4.38462C97.6784 4.38462 98.1329 4.45614 98.5604 4.60075C98.9879 4.74537 99.3582 4.94244 99.6728 5.19353C99.9875 5.44463 100.237 5.73228 100.421 6.05966C100.606 6.38545 100.699 6.73667 100.699 7.11331V15.301H89.9961C89.5129 15.301 89.0584 15.2295 88.6309 15.0848C88.2034 14.9402 87.8331 14.7432 87.5201 14.4921C87.2054 14.241 86.9559 13.9517 86.7715 13.6259C86.5856 13.3002 86.4934 12.9489 86.4934 12.5723V8.39423H97.0045V7.26429H86.4934V4.38462H97.1968H97.1952ZM97.0014 10.9163H90.1884V12.4213H97.0014V10.9163Z" fill="white"/>
</g>
<defs>
<clipPath id="clip0_5070_24674">
<rect width="224.055" height="34.4337" fill="white"/>
</clipPath>
</defs>
</svg>
